<svg width="24" height="24" viewBox="0 0 24 24" fill="none" xmlns="http://www.w3.org/2000/svg">
<g id="icon">
<path id="Ellipse 12" d="M2 12C2 6.47715 6.47715 2 12 2C17.5228 2 22 6.47715 22 12C22 17.5228 17.5228 22 12 22C6.47715 22 2 17.5228 2 12Z" fill="#4060FF"/>
<path id="Ellipse 3" d="M12.7094 16.1259C12.7094 16.661 12.2756 17.0947 11.7405 17.0947C11.2055 17.0947 10.7717 16.661 10.7717 16.1259C10.7717 15.5908 11.2055 15.1571 11.7405 15.1571C12.2756 15.1571 12.7094 15.5908 12.7094 16.1259Z" fill="white"/>
<path id="Ellipse 4 (Stroke)" fill-rule="evenodd" clip-rule="evenodd" d="M11.8937 8.40812C12.1947 8.39213 12.4928 8.44446 12.7589 8.55696C13.0248 8.66941 13.2446 8.83576 13.4037 9.03254C13.5622 9.22864 13.656 9.44891 13.6861 9.67147C13.7161 9.8936 13.683 10.121 13.5857 10.335C13.4946 10.5353 13.329 10.7344 13.0831 10.9258C12.9827 11.0039 12.8676 11.082 12.7218 11.1808C12.6753 11.2124 12.6257 11.246 12.5724 11.2824C12.3681 11.4222 12.1284 11.5916 11.9037 11.7907C11.4562 12.1872 10.9781 12.7826 10.9781 13.6364C10.9781 14.0506 11.3139 14.3864 11.7281 14.3864C12.1423 14.3864 12.4781 14.0506 12.4781 13.6364C12.4781 13.4028 12.5946 13.1826 12.8985 12.9134C13.0494 12.7797 13.2245 12.6537 13.4194 12.5204C13.4564 12.4951 13.4954 12.4687 13.5355 12.4415C13.6897 12.3372 13.8612 12.221 14.0046 12.1094L13.5439 11.5176L14.0046 12.1094C14.3822 11.8154 14.7324 11.4366 14.951 10.9562C15.1633 10.4896 15.241 9.97767 15.1726 9.4708C15.1042 8.96436 14.8937 8.48964 14.5702 8.0895C14.2472 7.69004 13.823 7.37831 13.343 7.17538C12.8632 6.9725 12.3377 6.88241 11.8141 6.91024C11.2906 6.93806 10.7787 7.08329 10.326 7.33751C9.873 7.59185 9.48962 7.94973 9.21958 8.38528C8.94901 8.82168 8.80313 9.31909 8.80313 9.83026C8.80313 10.2445 9.13891 10.5803 9.55313 10.5803C9.96734 10.5803 10.3031 10.2445 10.3031 9.83026C10.3031 9.6072 10.3663 9.38233 10.4944 9.17569C10.6231 8.9682 10.815 8.7832 11.0604 8.64542C11.306 8.5075 11.5928 8.42412 11.8937 8.40812Z" fill="white"/>
</g>
</svg>
